<svg xmlns="http://www.w3.org/2000/svg" width="54" height="54" viewBox="0 0 54 54" class="editor-view__logo-preview" data-v-8d8ae3dd="" data-v-b9d2a614=""><svg id="mark" viewBox="0 0 512 512" width="54" height="54" x="0" y="0" data-v-8d8ae3dd="" style="fill: rgb(255, 215, 0);"><rect x="0" y="0" width="100%" height="100%" fill="none" data-v-8d8ae3dd=""></rect><g data-v-8d8ae3dd="">
<path xmlns="http://www.w3.org/2000/svg" d="M0 0 C168.96 0 337.92 0 512 0 C512 168.96 512 337.92 512 512 C343.04 512 174.08 512 0 512 C0 343.04 0 174.08 0 0 Z M133.32421875 143.2109375 C132.55722656 144.13132813 131.79023438 145.05171875 131 146 C129.77216797 147.47339844 129.77216797 147.47339844 128.51953125 148.9765625 C109.15325714 172.88127921 97.82928762 200.5191319 97.515625 231.25390625 C97.4917768 233.04118011 97.46741444 234.82844717 97.44256592 236.6157074 C97.39281307 240.35516886 97.35000284 244.09462968 97.31201172 247.83422852 C97.26312469 252.582343 97.19594429 257.3299877 97.12326431 262.07779026 C97.06903336 265.76960813 97.02533343 269.46149754 96.98455048 273.15348625 C96.96392216 274.90148055 96.94004668 276.64944016 96.91260529 278.39734077 C96.43342069 310.12962235 105.55932728 335.85630984 125 361 C125.68191406 361.90492188 126.36382812 362.80984375 127.06640625 363.7421875 C141.24545024 381.8762969 159.43695295 398.16292491 179.91651917 408.8808136 C182 410 182 410 184.25132751 411.49455261 C196.09904247 418.3550678 209.58405412 416.79903497 222.83203125 416.6484375 C224.86552111 416.63655875 226.8990018 416.62852165 228.93251151 416.6208607 C235.31552462 416.59644335 241.69772985 416.54085261 248.08032227 416.46484375 C254.61921615 416.38747894 261.15689559 416.36097593 267.69621068 416.36004198 C273.35222826 416.3575119 279.00749211 416.32378074 284.663212 416.26576293 C288.02306178 416.23152987 291.38122596 416.21147506 294.74137306 416.21442795 C310.10813565 416.20772394 322.01576257 415.611208 335 407 C336.26155426 406.23416803 337.52706485 405.47481444 338.79649353 404.72210693 C373.07104087 384.29108428 403.54283316 347.53123782 413.8125 308.625 C416.27409258 298.5100923 416.17716288 288.27339078 416.203125 277.93359375 C416.20595238 277.16747332 416.20877975 276.40135288 416.21169281 275.61201668 C416.22661282 271.55408519 416.23588651 267.49618858 416.24023438 263.43823242 C416.24569575 259.29557473 416.269695 255.15324954 416.29820633 251.01069546 C416.31704177 247.78201941 416.32204935 244.55341997 416.32357025 241.32469368 C416.32655254 239.80001072 416.33442632 238.27532761 416.34775543 236.7507 C416.46167813 222.71373533 414.70533972 209.34486903 409.875 196.0625 C409.577146 195.23041016 409.27929199 194.39832031 408.97241211 193.54101562 C404.11169469 180.43961996 397.19635427 168.29808249 389 157 C388.61150879 156.46342773 388.22301758 155.92685547 387.82275391 155.37402344 C364.46617272 123.47818057 330.99765119 101.07412654 291.77636719 94.45605469 C280.27346673 92.78110773 268.82237645 92.62769062 257.21191406 92.62939453 C253.90116378 92.62503446 250.59176494 92.58862413 247.28125 92.55078125 C202.67542029 92.31498902 162.83409558 109.35993829 133.32421875 143.2109375 Z M99 107 C96.60250278 110.64619368 96.76437964 113.89603891 96.8125 118.1875 C96.81894531 119.43917969 96.82539062 120.69085938 96.83203125 121.98046875 C96.90447561 124.69266647 97.15687255 127.21153879 97.5078125 129.921875 C98.3827497 137.25704032 98.10427657 144.68696463 98.0625 152.0625 C98.05747503 153.61132668 98.05291388 155.16015493 98.04882812 156.70898438 C98.03790138 160.47269576 98.02069175 164.23633015 98 168 C101.05513467 165.11153846 102.93815164 161.81366775 105 158.1875 C108.24666624 152.62625737 111.75632588 147.42762348 115.75 142.375 C116.19730469 141.8080542 116.64460938 141.2411084 117.10546875 140.65698242 C119.87728939 137.21739565 122.88011664 134.11988336 126 131 C126.5259375 129.9171875 126.5259375 129.9171875 127.0625 128.8125 C128 127 128 127 129.8125 126.13671875 C132.42174051 124.78084555 133.93604703 123.15127383 135.9375 121 C143.67457146 113.08418432 152.56066039 106.7376378 162 101 C162 100.67 162 100.34 162 100 C151.65176352 99.65376963 141.30307557 99.33569906 130.95288086 99.05395508 C129.22959061 99.00634323 127.50638852 98.95556347 125.78320312 98.90429688 C123.3137118 98.83555301 120.8451343 98.78713666 118.375 98.75 C117.08335938 98.72421875 115.79171875 98.6984375 114.4609375 98.671875 C107.86042 99.2976577 103.33928644 101.91683588 99 107 Z M366.5625 99.5 C364.8483127 99.54836927 363.13412 99.59654741 361.41992188 99.64453125 C357.27988255 99.76082607 353.13992415 99.87967755 349 100 C352.1227823 102.52689941 355.27691986 104.89289792 358.60449219 107.14428711 C380.88852337 122.38572353 398.8006104 143.42203101 411.79296875 166.97265625 C412.19128906 167.64167969 412.58960938 168.31070313 413 169 C413.33 169 413.66 169 414 169 C414.03758423 167.22955322 414.03758423 167.22955322 414.07592773 165.42333984 C414.17036506 161.02870525 414.270496 156.63421536 414.37231445 152.23974609 C414.41552627 150.34069208 414.4572106 148.44160266 414.49731445 146.54248047 C414.5553515 143.80685777 414.61894827 141.07141106 414.68359375 138.3359375 C414.70030624 137.49195404 414.71701874 136.64797058 414.73423767 135.77841187 C414.84291298 131.41740706 415.20535613 127.30093601 416 123 C416.33025498 116.06464532 415.78500231 110.73000354 411.875 104.75 C406.40273885 99.51566325 401.74055073 98.84473067 394.42578125 98.8984375 C393.7794725 98.90258667 393.13316376 98.90673584 392.4672699 98.91101074 C383.83012292 98.98698149 375.19592328 99.24853288 366.5625 99.5 Z M413 345 C412.53851563 345.84820312 412.07703125 346.69640625 411.6015625 347.5703125 C404.06489804 361.21529026 395.38478836 373.23753407 384.5234375 384.4296875 C383.02521798 385.97400608 381.54380798 387.53322769 380.0625 389.09375 C370.75652745 398.77004013 360.52686906 407.08387856 349 414 C349 414.33 349 414.66 349 415 C356.72233339 415.24468577 364.44507334 415.45700976 372.16894531 415.64697266 C374.7957771 415.71538311 377.42242765 415.79117024 380.04882812 415.87451172 C383.82658728 415.99310249 387.60420617 416.0850509 391.3828125 416.171875 C392.55490265 416.21439392 393.7269928 416.25691284 394.93460083 416.30072021 C401.30209744 416.41828834 405.20931924 416.37863257 410 412 C413.92680419 407.54254659 415.12606266 405.24944905 415.11352539 399.35693359 C415.11344986 398.17586029 415.11337433 396.99478699 415.11329651 395.77792358 C415.10555458 393.85757797 415.10555458 393.85757797 415.09765625 391.8984375 C415.0962413 390.59170074 415.09482635 389.28496399 415.09336853 387.93862915 C415.08954894 384.46323742 415.07972342 380.98788743 415.06866455 377.51251221 C415.05843843 373.96668055 415.05386833 370.42084215 415.04882812 366.875 C415.03810066 359.91664951 415.02103092 352.95832676 415 346 C414.01 345.505 414.01 345.505 413 345 Z M98 346 C97.75252943 353.42337882 97.53345832 360.84703732 97.34978771 368.27228546 C97.26360934 371.72084476 97.16797091 375.16857953 97.05004883 378.61621094 C96.9146502 382.58730999 96.82158925 386.55887891 96.73046875 390.53125 C96.68278854 391.75863892 96.63510834 392.98602783 96.58598328 394.25061035 C96.43476767 402.85425951 98.03370177 407.60874125 103.75 413.9375 C110.42033238 417.08737918 119.17186798 416.07307139 126.37890625 415.87890625 C127.95791969 415.84348976 127.95791969 415.84348976 129.5688324 415.80735779 C132.90021433 415.7313565 136.2313255 415.64706225 139.5625 415.5625 C141.83397154 415.50921557 144.10545592 415.45647572 146.37695312 415.40429688 C151.91813285 415.27582842 157.4591147 415.14056778 163 415 C160.04569949 412.63097685 157.07674621 410.29202088 154.0625 408 C134.39246197 392.6612783 116.33223552 375.72525304 103.90307617 353.88500977 C102.17936381 350.86206609 100.52379813 348.38611211 98 346 Z " fill="inherit" transform="translate(0,0)"></path>
<path xmlns="http://www.w3.org/2000/svg" d="M0 0 C19.09228841 16.80089333 31.97884487 39.95823622 35.625 65.1875 C36.54479245 80.20485625 36.38664152 94.84324034 31.625 109.1875 C31.41601074 109.8254248 31.20702148 110.46334961 30.99169922 111.12060547 C26.15742524 125.49306496 18.18745372 137.349504 7.625 148.1875 C6.89410156 148.96867188 6.16320312 149.74984375 5.41015625 150.5546875 C-9.98254161 166.62369018 -33.0248558 178.07312598 -55.44848633 179.36450195 C-86.55333499 179.94945116 -112.99999607 174.23816225 -136.1796875 152.34033203 C-156.9981001 132.13216265 -167.85554992 107.70065592 -168.42285156 78.74511719 C-168.31652631 49.60018414 -157.14917616 24.90120621 -137.3125 3.6875 C-100.60320915 -32.01086374 -38.59224304 -32.6322547 0 0 Z M-128.375 16.1875 C-128.98730469 16.72632813 -129.59960938 17.26515625 -130.23046875 17.8203125 C-145.05929186 31.3257395 -152.70065895 52.83135573 -153.69140625 72.390625 C-154.48281669 98.02465719 -147.2997956 120.02648161 -129.57470703 138.95996094 C-113.31399545 155.80518971 -92.32365834 164.81964569 -68.9597168 165.52441406 C-42.08188543 165.90219059 -20.9799229 156.19332063 -1.625 137.9375 C14.53671317 121.18766044 22.18022303 99.38207598 21.97875977 76.24853516 C21.3626921 54.58312369 12.91917538 35.27458741 -1.375 19.1875 C-2.00148438 18.47722656 -2.62796875 17.76695312 -3.2734375 17.03515625 C-18.22823242 1.10230513 -39.46089124 -8.15056321 -61.140625 -9.15625 C-87.27799431 -9.81898389 -109.36689529 -2.24664773 -128.375 16.1875 Z " fill="inherit" transform="translate(322.375,180.8125)"></path>
<path xmlns="http://www.w3.org/2000/svg" d="M0 0 C0.65613281 0.53238281 1.31226563 1.06476563 1.98828125 1.61328125 C2.92607422 2.36544922 2.92607422 2.36544922 3.8828125 3.1328125 C10.8091329 9.33481181 15.54623805 18.58410183 16.2265625 27.86328125 C16.4990101 41.62905451 13.49941126 51.62430599 4.0234375 61.703125 C-5.27863727 70.73606198 -16.35492005 73.90214153 -29.06689453 73.93017578 C-40.37703133 73.70862292 -49.95896165 69.22743276 -58.16796875 61.61328125 C-67.21322168 52.163017 -70.35530376 42.0192343 -70.22265625 29.21875 C-69.57885563 18.21452832 -64.69235541 9.84554269 -56.76171875 2.36328125 C-40.5921706 -11.27892576 -17.2838029 -12.73377069 0 0 Z " fill="inherit" transform="translate(283.01171875,229.38671875)"></path>
<path xmlns="http://www.w3.org/2000/svg" d="M0 0 C3.27737015 1.85024398 5.5127407 4.13622214 7.375 7.4375 C8.50732842 12.08004651 8.52817466 15.42658719 6.3125 19.6875 C4.27437134 22.87516143 2.64000288 24.65478155 -1 26 C-5.13249868 26.61606764 -9.10840728 26.97480852 -12.91015625 25.015625 C-15.71043095 22.78641369 -18.01418413 20.45035555 -19 17 C-19.42537199 11.64031296 -19.48854141 8.33060313 -16 4 C-10.86285382 -0.62343156 -6.75543743 -1.86444965 0 0 Z " fill="inherit" transform="translate(139,250)"></path>
<path xmlns="http://www.w3.org/2000/svg" d="M0 0 C3.26330864 2.13394179 6.23852696 4.47705392 8 8 C8.57031437 12.67470792 8.43841751 16.12316498 6.3125 20.375 C3.29420769 23.80116965 1.27674756 25.65677173 -3.33203125 26.3515625 C-7.677408 26.59912519 -10.98071343 26.55356595 -14.5 23.8125 C-17.90837051 19.97808318 -18.82261505 17.62602872 -19.375 12.5625 C-18.83927455 7.47310826 -16.74037253 4.52941828 -12.9375 1.1875 C-8.68212875 -1.42063077 -4.67669898 -1.41925417 0 0 Z " fill="inherit" transform="translate(385,250)"></path>
</g></svg><!----><!----></svg>